<?xml version="1.0" encoding="UTF-8"?>
<svg width="88px" height="88px" viewBox="0 0 88 88" version="1.1" xmlns="http://www.w3.org/2000/svg" xmlns:xlink="http://www.w3.org/1999/xlink">
    <title>close</title>
    <g id="close" stroke="none" stroke-width="1" fill="none" fill-rule="evenodd">
        <rect id="Rectangle" x="0" y="0" width="128" height="88"></rect>
        <g id="􀆄" transform="translate(8.000000, 8.000000)" fill="#000000" fill-rule="nonzero">
            <path d="M2.20387113,13.8540608 L58.0696082,69.7356095 C59.0894678,70.7551665 60.3022588,71.430612 61.7079814,71.761946 C63.1137039,72.09328 64.5210792,72.0787401 65.9301073,71.7183263 C67.3391354,71.3579124 68.5643772,70.6536074 69.6058327,69.6054111 C70.647729,68.542675 71.3489375,67.3086541 71.7094583,65.9033486 C72.0699791,64.498043 72.0861761,63.0981349 71.7580492,61.7036241 C71.4299224,60.3091134 70.7559293,59.1020795 69.7360697,58.0825225 L13.8703326,2.23335812 C12.8936651,1.25037123 11.7062163,0.594863058 10.3079862,0.266833592 C8.90975611,-0.0611958728 7.49158281,-0.0611958728 6.05346627,0.266833592 C4.61534973,0.594863058 3.37556369,1.2937707 2.33410817,2.36355652 C1.2922119,3.40470309 0.601801373,4.63872395 0.262876574,6.06561907 C-0.0760482247,7.4925142 -0.0760482247,8.90861454 0.262876574,10.3139201 C0.601801373,11.7192256 1.24879956,12.8992725 2.20387113,13.8540608 Z M2.20387113,58.1149069 C1.24879956,59.0912847 0.600148619,60.276729 0.257918312,61.6712398 C-0.0843119959,63.0657505 -0.0859647501,64.4818509 0.252960049,65.9195408 C0.591884848,67.3572307 1.28560089,68.5968692 2.33410817,69.6384564 C3.38217471,70.679603 4.62526625,71.3712407 6.06338279,71.7133695 C7.50149933,72.0554982 8.91801988,72.0554982 10.3129444,71.7133695 C11.707869,71.3712407 12.8936651,70.7227822 13.8703326,69.7679939 L69.7360697,13.9188295 C70.7559293,12.8992725 71.4315752,11.6868413 71.7630075,10.2815357 C72.0944398,8.87623017 72.0782428,7.47092462 71.7144165,6.06561907 C71.3505902,4.66031353 70.647729,3.43708747 69.6058327,2.39594089 C68.5577662,1.34774465 67.3308716,0.643439617 65.9251491,0.283025779 C64.5194265,-0.0773880593 63.1137039,-0.0935802458 61.7079814,0.234449219 C60.3022588,0.562478685 59.0894678,1.23957644 58.0696082,2.26574249 L2.20387113,58.1149069 Z" id="Shape"></path>
        </g>
    </g>
</svg>