<?xml version="1.0" encoding="UTF-8"?>
<svg width="128px" height="88px" viewBox="0 0 128 88" version="1.1" xmlns="http://www.w3.org/2000/svg" xmlns:xlink="http://www.w3.org/1999/xlink">
    <title>motorcycle</title>
    <g id="motorcycle" stroke="none" stroke-width="1" fill="none" fill-rule="evenodd">
        <rect id="Rectangle" x="0" y="0" width="128" height="88"></rect>
        <g id="two_wheeler_FILL0_wght400_GRAD0_opsz48" transform="translate(8.000000, 14.000000)" fill="#000000" fill-rule="nonzero">
            <path d="M18.4802083,66 C13.3795139,66 9.02430556,64.2125 5.41458333,60.6375 C1.80486111,57.0625 0,52.6821429 0,47.4964286 C0,42.3107143 1.78524306,37.9303571 5.35572917,34.3553571 C8.92621528,30.7803571 13.2618056,28.9928571 18.3625,28.9928571 L12.8302083,24.75 L0,24.75 L0,18.8571429 L21.3052083,18.8571429 L32.9583333,25.9285714 L51.6739583,18.8571429 L68.153125,18.8571429 L58.971875,7.07142857 L48.4958333,7.07142857 L48.4958333,0 L62.503125,0 L72.6260417,13.0821429 L87.8104167,5.53928571 L87.8104167,17.7964286 L76.275,17.7964286 L86.2802083,30.7607143 C87.6142361,30.2107143 88.9482639,29.7982143 90.2822917,29.5232143 C91.6163194,29.2482143 92.9895833,29.1107143 94.4020833,29.1107143 C99.58125,29.1107143 103.975694,30.8982143 107.585417,34.4732143 C111.195139,38.0482143 113,42.4285714 113,47.6142857 C113,52.8 111.195139,57.1607143 107.585417,60.6964286 C103.975694,64.2321429 99.58125,66 94.4020833,66 C89.3013889,66 84.9657986,64.2125 81.3953125,60.6375 C77.8248264,57.0625 76.0395833,52.7214286 76.0395833,47.6142857 C76.0395833,45.2571429 76.4319444,43.0178571 77.2166667,40.8964286 C78.0013889,38.775 79.1784722,36.85 80.7479167,35.1214286 L76.628125,29.8178571 L59.4427083,56.1 L46.4947917,56.1 L36.9604167,47.4964286 C36.9604167,52.6821429 35.1751736,57.0625 31.6046875,60.6375 C28.0342014,64.2125 23.659375,66 18.4802083,66 Z M18.4802083,58.9285714 C21.6975694,58.9285714 24.4048611,57.8089286 26.6020833,55.5696429 C28.7993056,53.3303571 29.8979167,50.6392857 29.8979167,47.4964286 C29.8979167,44.3535714 28.7993056,41.6625 26.6020833,39.4232143 C24.4048611,37.1839286 21.6975694,36.0642857 18.4802083,36.0642857 C15.3413194,36.0642857 12.6536458,37.1642857 10.4171875,39.3642857 C8.18072917,41.5642857 7.0625,44.275 7.0625,47.4964286 C7.0625,50.7178571 8.18072917,53.4285714 10.4171875,55.6285714 C12.6536458,57.8285714 15.3413194,58.9285714 18.4802083,58.9285714 Z M53.0864583,25.9285714 L32.7229167,33.5892857 L53.0864583,25.9285714 L70.7427083,25.9285714 L53.0864583,25.9285714 Z M94.4020833,58.9285714 C97.6194444,58.9285714 100.346354,57.8285714 102.582813,55.6285714 C104.819271,53.4285714 105.9375,50.7571429 105.9375,47.6142857 C105.9375,44.3928571 104.819271,41.6625 102.582813,39.4232143 C100.346354,37.1839286 97.6194444,36.0642857 94.4020833,36.0642857 C91.2631944,36.0642857 88.5951389,37.1839286 86.3979167,39.4232143 C84.2006944,41.6625 83.1020833,44.3928571 83.1020833,47.6142857 C83.1020833,50.7571429 84.2006944,53.4285714 86.3979167,55.6285714 C88.5951389,57.8285714 91.2631944,58.9285714 94.4020833,58.9285714 Z M55.6760417,49.0285714 L70.7427083,25.9285714 L53.0864583,25.9285714 L32.7229167,33.5892857 L49.084375,49.0285714 L55.6760417,49.0285714 Z" id="Shape"></path>
        </g>
    </g>
</svg>